<?xml version="1.0" encoding="utf-8"?>
<!-- Generator: Moho 12.4 build 22203 -->
<!DOCTYPE svg PUBLIC "-//W3C//DTD SVG 1.1//EN" "http://www.w3.org/Graphics/SVG/1.1/DTD/svg11.dtd">
<svg version="1.1" id="Frame_0" xmlns="http://www.w3.org/2000/svg" xmlns:xlink="http://www.w3.org/1999/xlink" width="1280px" height="720px">
<g id="Layer_3">
<g id="Layer_15">
<path fill="#606060" fill-rule="evenodd" stroke="none" d="M 555.769 150.391 C 555.769 150.391 555.769 150.391 555.769 150.391 C 554.120 151.406 551.642 152.407 550.271 153.775 C 548.966 155.076 547.609 157.243 547.028 158.991 C 546.352 161.024 546.638 163.975 546.471 166.110 C 546.471 166.110 546.471 166.110 546.471 166.110 C 546.591 171.860 546.869 185.274 546.869 185.276 C 633.116 184.676 834.328 183.277 834.357 183.276 C 834.835 182.968 835.951 182.248 835.951 182.248 C 836.090 181.477 836.384 180.460 836.413 179.677 C 836.447 178.794 836.588 177.487 836.105 176.747 C 835.787 176.260 834.460 175.719 834.460 175.719 C 834.472 171.106 834.501 160.346 834.501 160.344 C 834.088 159.706 833.661 158.755 833.124 158.218 C 832.534 157.627 830.783 156.712 830.783 156.712 C 825.008 156.734 811.535 156.784 811.533 156.784 C 810.949 157.239 810.081 157.748 809.587 158.298 C 809.093 158.847 808.289 160.389 808.289 160.389 C 808.289 164.888 808.289 175.384 808.289 175.385 C 802.597 175.344 789.317 175.248 789.315 175.248 C 789.301 168.207 789.270 151.779 789.270 151.777 C 788.839 150.990 788.486 149.772 787.834 149.156 C 787.348 148.695 785.838 148.157 785.837 148.157 C 779.640 148.157 765.181 148.157 765.179 148.157 C 764.505 148.494 763.523 148.812 762.932 149.280 C 762.406 149.697 761.492 150.991 761.492 150.992 C 761.583 158.330 761.794 175.449 761.794 175.451 C 752.005 175.525 729.167 175.698 729.164 175.698 C 728.981 172.861 728.554 166.244 728.554 166.243 C 724.391 165.191 714.679 162.737 714.677 162.736 C 714.677 161.044 715.159 158.717 714.677 157.094 C 714.244 155.635 713.067 153.840 711.933 152.825 C 710.606 151.637 708.197 151.010 706.595 150.232 C 706.595 150.232 706.595 150.232 706.595 150.232 C 661.348 150.280 555.784 150.391 555.769 150.391 C 555.769 150.391 555.769 150.391 555.769 150.391 Z"/>
<path fill="none" stroke="#606060" stroke-width="1" stroke-linecap="round" stroke-linejoin="round" d="M 761.492 150.992 C 761.492 150.992 761.492 150.992 761.492 150.992 C 761.492 150.991 762.406 149.697 762.932 149.280 C 763.523 148.812 764.505 148.494 765.179 148.157 C 765.179 148.157 765.179 148.157 765.179 148.157 C 765.181 148.157 779.640 148.157 785.837 148.157 C 785.837 148.157 785.837 148.157 785.837 148.157 C 785.838 148.157 787.348 148.695 787.834 149.156 C 788.486 149.772 788.839 150.990 789.270 151.777 C 789.270 151.777 789.270 151.777 789.270 151.777 C 789.270 151.779 789.301 168.207 789.315 175.248 C 789.315 175.248 789.315 175.248 789.315 175.248 C 789.317 175.248 802.597 175.344 808.289 175.385 C 808.289 175.385 808.289 175.385 808.289 175.385 C 808.289 175.384 808.289 164.888 808.289 160.389 C 808.289 160.389 808.289 160.389 808.289 160.389 C 808.289 160.389 809.093 158.847 809.587 158.298 C 810.081 157.748 810.949 157.239 811.533 156.784 C 811.533 156.784 811.533 156.784 811.533 156.784 C 811.535 156.784 825.008 156.734 830.783 156.712 C 830.783 156.712 830.783 156.712 830.783 156.712 C 830.783 156.712 832.534 157.627 833.124 158.218 C 833.661 158.755 834.088 159.706 834.501 160.344 C 834.501 160.344 834.501 160.344 834.501 160.344 C 834.501 160.346 834.472 171.106 834.460 175.719 C 834.460 175.719 834.460 175.719 834.460 175.719 C 834.460 175.719 835.787 176.260 836.105 176.747 C 836.588 177.487 836.447 178.794 836.413 179.677 C 836.384 180.460 836.090 181.477 835.951 182.248 C 835.951 182.248 835.951 182.248 835.951 182.248 C 835.951 182.248 834.835 182.968 834.357 183.276 C 834.357 183.276 834.357 183.276 834.357 183.276 C 834.328 183.277 633.116 184.676 546.869 185.276 C 546.869 185.276 546.869 185.276 546.869 185.276 C 546.869 185.274 546.591 171.860 546.471 166.110 C 546.638 163.975 546.352 161.024 547.028 158.991 C 547.609 157.243 548.966 155.076 550.271 153.775 C 551.642 152.407 554.120 151.406 555.769 150.391 C 555.769 150.391 555.769 150.391 555.769 150.391 C 555.784 150.391 661.348 150.280 706.595 150.232 C 708.197 151.010 710.606 151.637 711.933 152.825 C 713.067 153.840 714.244 155.635 714.677 157.094 C 715.159 158.717 714.677 161.044 714.677 162.736 C 714.677 162.736 714.677 162.736 714.677 162.736 C 714.679 162.737 724.391 165.191 728.554 166.243 C 728.554 166.243 728.554 166.243 728.554 166.243 C 728.554 166.244 728.981 172.861 729.164 175.698 C 729.164 175.698 729.164 175.698 729.164 175.698 C 729.167 175.698 752.005 175.525 761.794 175.451 C 761.794 175.451 761.794 175.451 761.794 175.451 C 761.794 175.449 761.583 158.330 761.492 150.992 M 546.471 166.110 C 546.471 166.110 546.471 166.110 546.471 166.110 M 706.595 150.232 C 706.595 150.232 706.595 150.232 706.595 150.232 M 555.769 150.391 C 555.769 150.391 555.769 150.391 555.769 150.391 "/>
<path fill="none" stroke="#d88527" stroke-width="4" stroke-linecap="round" stroke-linejoin="round" d="M 655.432 143.237 C 655.432 143.239 655.432 156.028 655.432 161.509 C 655.432 161.509 655.432 161.509 655.432 161.509 M 560.490 140.165 C 560.500 140.165 653.124 140.955 653.124 140.955 C 653.614 141.272 654.363 141.580 654.757 142.010 C 655.041 142.320 655.229 142.869 655.432 143.237 C 655.432 143.237 655.432 143.237 655.432 143.237 M 557.616 142.428 C 557.616 142.427 558.260 141.195 558.717 140.838 C 559.165 140.487 559.958 140.367 560.490 140.165 C 560.490 140.165 560.490 140.165 560.490 140.165 M 557.372 160.466 C 557.372 160.465 557.543 147.839 557.616 142.428 C 557.616 142.428 557.616 142.428 557.616 142.428 "/>
<path fill="none" stroke="#d88527" stroke-width="6" stroke-linecap="round" stroke-linejoin="round" d="M 662.560 160.869 C 662.560 160.863 662.560 121.359 662.560 104.426 C 662.560 104.426 662.560 104.426 662.560 104.426 "/>
<path fill="#01ffff" fill-rule="evenodd" stroke="#01ffff" stroke-width="12" stroke-linecap="round" stroke-linejoin="round" d="M 656.889 88.007 C 656.890 88.007 668.956 88.007 668.958 88.007 C 668.958 88.008 668.958 100.688 668.958 100.689 C 668.956 100.689 656.890 100.689 656.889 100.689 C 656.889 100.688 656.889 88.008 656.889 88.007 Z"/>
<path fill="#005e9e" fill-rule="evenodd" stroke="none" d="M 516.985 384.666 C 516.985 384.666 516.985 384.666 516.985 384.666 C 516.985 384.658 515.849 330.803 515.362 307.718 C 488.089 307.426 451.726 307.037 424.453 306.744 C 424.161 329.537 423.771 359.926 423.479 382.718 C 451.531 383.303 488.933 384.082 516.985 384.666 C 516.985 384.666 516.985 384.666 516.985 384.666 M 515.362 307.718 C 515.362 307.718 515.362 307.718 515.362 307.718 M 423.479 382.718 C 423.479 382.718 423.479 382.718 423.479 382.718 M 424.453 306.744 C 424.453 306.744 424.453 306.744 424.453 306.744 Z"/>
<path fill="none" stroke="#005e9e" stroke-width="1" stroke-linecap="round" stroke-linejoin="round" d="M 516.985 384.666 C 516.985 384.666 516.985 384.666 516.985 384.666 C 516.985 384.658 515.849 330.803 515.362 307.718 C 488.089 307.426 451.726 307.037 424.453 306.744 C 424.161 329.537 423.771 359.926 423.479 382.718 C 451.531 383.303 488.933 384.082 516.985 384.666 C 516.985 384.666 516.985 384.666 516.985 384.666 M 515.362 307.718 C 515.362 307.718 515.362 307.718 515.362 307.718 M 423.479 382.718 C 423.479 382.718 423.479 382.718 423.479 382.718 M 424.453 306.744 C 424.453 306.744 424.453 306.744 424.453 306.744 "/>
<path fill="#0196fd" fill-rule="evenodd" stroke="#0196fd" stroke-width="14" stroke-linecap="round" stroke-linejoin="round" d="M 439.388 314.032 C 439.393 314.032 492.308 314.032 492.314 314.032 C 492.314 314.035 492.314 341.482 492.314 341.484 C 492.308 341.484 439.393 341.484 439.388 341.484 C 439.388 341.482 439.388 314.035 439.388 314.032 Z"/>
<g id="Layer_4">
<clipPath id="7721dce2-c7a9-4852-9a91-a529f76ca5fe">
<path fill="#0196fd" fill-rule="evenodd" stroke="none" d="M 781.579 182.130 C 881.934 182.130 962.892 263.087 962.892 363.442 C 962.892 463.798 881.934 544.755 781.579 544.755 C 681.224 544.755 600.266 463.798 600.266 363.442 C 600.266 263.087 681.224 182.130 781.579 182.130 Z"/>
</clipPath>
<path fill="#0196fd" fill-rule="evenodd" stroke="#0196fd" stroke-width="1" stroke-linecap="round" stroke-linejoin="round" d="M 781.579 182.130 C 881.934 182.130 962.892 263.087 962.892 363.442 C 962.892 463.798 881.934 544.755 781.579 544.755 C 681.224 544.755 600.266 463.798 600.266 363.442 C 600.266 263.087 681.224 182.130 781.579 182.130 Z"/>
<path fill="none" stroke="#01ffff" stroke-width="20" stroke-linecap="round" stroke-linejoin="round" d="M 760.259 208.989 C 760.262 208.989 781.199 207.764 790.052 208.989 C 804.099 210.932 822.369 216.763 835.373 222.417 C 845.926 227.007 859.507 234.568 868.523 241.720 C 879.060 250.078 899.154 274.448 899.157 274.452 "/>
<path fill="none" stroke="#01ffff" stroke-width="18" stroke-linecap="round" stroke-linejoin="round" d="M 914.546 295.801 C 918.137 301.895 921.729 307.988 925.320 314.082 "/>
<path fill="none" stroke="#01ffff" stroke-width="15" stroke-linecap="round" stroke-linejoin="round" d="M 933.853 333.287 C 933.854 333.288 936.847 344.063 937.648 348.781 C 938.683 354.886 939.545 369.332 939.545 369.334 "/>
<path fill="#005e9e" fill-rule="evenodd" stroke="#005e9e" stroke-width="1" stroke-linecap="round" stroke-linejoin="round" d="M 696.847 250.032 C 848.648 250.032 971.107 372.491 971.106 524.292 C 971.106 676.092 848.648 798.551 696.847 798.551 C 545.047 798.551 422.588 676.092 422.588 524.292 C 422.588 372.491 545.047 250.032 696.847 250.032 Z" clip-path="url(#7721dce2-c7a9-4852-9a91-a529f76ca5fe)"/>
</g>
<g id="Layer_6">
<clipPath id="6e843712-3928-432b-9342-775fb5d53645">
<path fill="#5f5f5f" fill-rule="evenodd" stroke="none" d="M 333.938 196.016 C 333.938 196.016 333.938 196.016 333.938 196.016 C 349.091 196.249 369.295 196.560 384.448 196.793 C 384.448 196.793 384.448 196.793 384.448 196.793 C 392.762 226.011 412.160 294.176 412.163 294.186 C 403.926 297.683 393.266 303.231 384.707 305.842 C 377.812 307.946 368.290 309.626 361.135 310.505 C 352.951 311.510 341.916 311.411 333.679 311.800 C 333.679 311.800 333.679 311.800 333.679 311.800 C 333.757 277.065 333.938 196.027 333.938 196.016 C 333.938 196.016 333.938 196.016 333.938 196.016 Z"/>
<path fill="#606060" fill-rule="evenodd" stroke="none" d="M 379.316 391.676 C 379.316 391.676 379.316 391.676 379.316 391.676 C 384.036 391.676 390.339 391.389 395.051 391.676 C 398.706 391.899 403.671 392.046 407.170 393.123 C 409.368 393.800 411.972 395.519 414.029 396.546 C 414.029 396.546 414.029 396.546 414.029 396.546 C 413.335 429.034 411.715 504.831 411.715 504.841 C 407.710 505.277 402.389 506.082 398.366 506.292 C 392.715 506.588 379.506 506.147 379.504 506.147 C 379.447 471.806 379.316 391.688 379.316 391.676 C 379.316 391.676 379.316 391.676 379.316 391.676 Z"/>
<path fill="#3b3b3b" fill-rule="evenodd" stroke="none" d="M 546.216 384.490 C 546.216 384.490 546.216 384.490 546.216 384.490 C 523.452 384.358 493.100 384.181 470.337 384.049 C 470.337 384.049 470.337 384.049 470.337 384.049 C 471.238 417.416 473.342 495.263 473.343 495.274 C 495.244 496.949 524.446 499.182 546.348 500.857 C 546.348 500.857 546.348 500.857 546.348 500.857 C 546.308 465.947 546.216 384.502 546.216 384.490 C 546.216 384.490 546.216 384.490 546.216 384.490 Z"/>
</clipPath>
<path fill="#5f5f5f" fill-rule="evenodd" stroke="none" d="M 333.938 196.016 C 333.938 196.016 333.938 196.016 333.938 196.016 C 349.091 196.249 369.295 196.560 384.448 196.793 C 384.448 196.793 384.448 196.793 384.448 196.793 C 392.762 226.011 412.160 294.176 412.163 294.186 C 403.926 297.683 393.266 303.231 384.707 305.842 C 377.812 307.946 368.290 309.626 361.135 310.505 C 352.951 311.510 341.916 311.411 333.679 311.800 C 333.679 311.800 333.679 311.800 333.679 311.800 C 333.757 277.065 333.938 196.027 333.938 196.016 C 333.938 196.016 333.938 196.016 333.938 196.016 Z"/>
<path fill="none" stroke="#5f5f5f" stroke-width="1" stroke-linecap="round" stroke-linejoin="round" d="M 412.163 294.186 C 412.163 294.186 412.163 294.186 412.163 294.186 C 412.160 294.176 392.762 226.011 384.448 196.793 C 369.295 196.560 349.091 196.249 333.938 196.016 C 333.938 196.016 333.938 196.016 333.938 196.016 C 333.938 196.027 333.757 277.065 333.679 311.800 C 341.916 311.411 352.951 311.510 361.135 310.505 C 368.290 309.626 377.812 307.946 384.707 305.842 C 393.266 303.231 403.926 297.683 412.163 294.186 M 384.448 196.793 C 384.448 196.793 384.448 196.793 384.448 196.793 M 333.679 311.800 C 333.679 311.800 333.679 311.800 333.679 311.800 M 333.938 196.016 C 333.938 196.016 333.938 196.016 333.938 196.016 "/>
<path fill="#606060" fill-rule="evenodd" stroke="none" d="M 379.316 391.676 C 379.316 391.676 379.316 391.676 379.316 391.676 C 384.036 391.676 390.339 391.389 395.051 391.676 C 398.706 391.899 403.671 392.046 407.170 393.123 C 409.368 393.800 411.972 395.519 414.029 396.546 C 414.029 396.546 414.029 396.546 414.029 396.546 C 413.335 429.034 411.715 504.831 411.715 504.841 C 407.710 505.277 402.389 506.082 398.366 506.292 C 392.715 506.588 379.506 506.147 379.504 506.147 C 379.447 471.806 379.316 391.688 379.316 391.676 C 379.316 391.676 379.316 391.676 379.316 391.676 Z"/>
<path fill="none" stroke="#606060" stroke-width="1" stroke-linecap="round" stroke-linejoin="round" d="M 411.715 504.841 C 411.715 504.841 411.715 504.841 411.715 504.841 C 411.715 504.831 413.335 429.034 414.029 396.546 C 411.972 395.519 409.368 393.800 407.170 393.123 C 403.671 392.046 398.706 391.899 395.051 391.676 C 390.339 391.389 384.036 391.676 379.316 391.676 C 379.316 391.676 379.316 391.676 379.316 391.676 C 379.316 391.688 379.447 471.806 379.504 506.147 C 379.504 506.147 379.504 506.147 379.504 506.147 C 379.506 506.147 392.715 506.588 398.366 506.292 C 402.389 506.082 407.710 505.277 411.715 504.841 M 414.029 396.546 C 414.029 396.546 414.029 396.546 414.029 396.546 M 379.316 391.676 C 379.316 391.676 379.316 391.676 379.316 391.676 "/>
<path fill="#3b3b3b" fill-rule="evenodd" stroke="none" d="M 546.216 384.490 C 546.216 384.490 546.216 384.490 546.216 384.490 C 523.452 384.358 493.100 384.181 470.337 384.049 C 470.337 384.049 470.337 384.049 470.337 384.049 C 471.238 417.416 473.342 495.263 473.343 495.274 C 495.244 496.949 524.446 499.182 546.348 500.857 C 546.348 500.857 546.348 500.857 546.348 500.857 C 546.308 465.947 546.216 384.502 546.216 384.490 C 546.216 384.490 546.216 384.490 546.216 384.490 Z"/>
<path fill="none" stroke="#3b3b3b" stroke-width="1" stroke-linecap="round" stroke-linejoin="round" d="M 473.343 495.274 C 473.343 495.274 473.343 495.274 473.343 495.274 C 473.342 495.263 471.238 417.416 470.337 384.049 C 493.100 384.181 523.452 384.358 546.216 384.490 C 546.216 384.490 546.216 384.490 546.216 384.490 C 546.216 384.502 546.308 465.947 546.348 500.857 C 524.446 499.182 495.244 496.949 473.343 495.274 M 470.337 384.049 C 470.337 384.049 470.337 384.049 470.337 384.049 M 546.348 500.857 C 546.348 500.857 546.348 500.857 546.348 500.857 M 546.216 384.490 C 546.216 384.490 546.216 384.490 546.216 384.490 "/>
<path fill="#3a3a3a" fill-rule="evenodd" stroke="none" d="M 379.597 253.409 C 379.597 253.409 379.597 253.409 379.597 253.409 C 365.263 253.409 346.151 253.409 331.817 253.409 C 331.817 253.409 331.817 253.409 331.817 253.409 C 331.311 271.538 330.131 313.831 330.130 313.837 C 333.672 314.174 338.378 314.961 341.935 314.961 C 353.481 314.964 369.043 313.588 380.159 310.464 C 385.649 308.922 397.583 302.877 397.585 302.876 C 392.189 288.036 379.599 253.414 379.597 253.409 C 379.597 253.409 379.597 253.409 379.597 253.409 Z" clip-path="url(#6e843712-3928-432b-9342-775fb5d53645)"/>
<path fill="none" stroke="#3a3a3a" stroke-width="1" stroke-linecap="round" stroke-linejoin="round" d="M 330.130 313.837 C 330.130 313.837 330.130 313.837 330.130 313.837 C 330.131 313.831 331.311 271.538 331.817 253.409 C 346.151 253.409 365.263 253.409 379.597 253.409 C 379.597 253.409 379.597 253.409 379.597 253.409 C 379.599 253.414 392.189 288.036 397.585 302.876 C 397.585 302.876 397.585 302.876 397.585 302.876 C 397.583 302.877 385.649 308.922 380.159 310.464 C 369.043 313.588 353.481 314.964 341.935 314.961 C 338.378 314.961 333.672 314.174 330.130 313.837 M 331.817 253.409 C 331.817 253.409 331.817 253.409 331.817 253.409 M 379.597 253.409 C 379.597 253.409 379.597 253.409 379.597 253.409 " clip-path="url(#6e843712-3928-432b-9342-775fb5d53645)"/>
<path fill="#3b3b3b" fill-rule="evenodd" stroke="none" d="M 412.094 448.919 C 412.094 448.919 412.094 448.919 412.094 448.919 C 401.971 448.914 388.474 448.907 378.352 448.901 C 378.352 448.901 378.352 448.901 378.352 448.901 C 378.055 466.756 377.363 508.410 377.363 508.416 C 387.862 508.298 412.357 508.021 412.360 508.021 C 412.280 490.290 412.094 448.925 412.094 448.919 C 412.094 448.919 412.094 448.919 412.094 448.919 Z" clip-path="url(#6e843712-3928-432b-9342-775fb5d53645)"/>
<path fill="none" stroke="#3b3b3b" stroke-width="1" stroke-linecap="round" stroke-linejoin="round" d="M 377.363 508.416 C 377.363 508.416 377.363 508.416 377.363 508.416 C 377.363 508.410 378.055 466.756 378.352 448.901 C 388.474 448.907 401.971 448.914 412.094 448.919 C 412.094 448.919 412.094 448.919 412.094 448.919 C 412.094 448.925 412.280 490.290 412.360 508.021 C 412.360 508.021 412.360 508.021 412.360 508.021 C 412.357 508.021 387.862 508.298 377.363 508.416 M 378.352 448.901 C 378.352 448.901 378.352 448.901 378.352 448.901 M 412.094 448.919 C 412.094 448.919 412.094 448.919 412.094 448.919 " clip-path="url(#6e843712-3928-432b-9342-775fb5d53645)"/>
</g>
<path fill="none" stroke="#606060" stroke-width="32" stroke-linecap="round" stroke-linejoin="round" d="M 523.212 307.592 C 523.212 353.236 523.212 398.880 523.212 444.524 "/>
<path fill="none" stroke="#3b3b3b" stroke-width="12" stroke-linecap="round" stroke-linejoin="round" d="M 510.584 323.117 C 480.495 323.170 450.406 323.223 420.318 323.276 "/>
<path fill="#f29c25" fill-rule="evenodd" stroke="none" d="M 545.351 163.454 C 480.877 167.760 394.911 173.502 330.436 177.808 C 330.443 177.822 375.962 272.667 395.473 313.321 C 395.488 313.321 499.778 313.565 544.480 313.669 C 544.480 313.654 545.090 208.518 545.351 163.454 C 545.351 163.454 545.351 163.454 545.351 163.454 Z"/>
<path fill="none" stroke="#f29c25" stroke-width="1" stroke-linecap="round" stroke-linejoin="round" d="M 330.436 177.808 C 330.436 177.808 330.436 177.808 330.436 177.808 C 394.911 173.502 480.877 167.760 545.351 163.454 C 545.351 163.454 545.351 163.454 545.351 163.454 C 545.090 208.518 544.480 313.654 544.480 313.669 C 544.480 313.669 544.480 313.669 544.480 313.669 C 499.778 313.565 395.488 313.321 395.473 313.321 C 395.473 313.321 395.473 313.321 395.473 313.321 C 375.962 272.667 330.443 177.822 330.436 177.808 "/>
<path fill="#d8872b" fill-rule="evenodd" stroke="none" d="M 527.311 190.994 C 527.311 190.994 527.311 190.994 527.311 190.994 C 527.442 190.124 527.537 188.948 527.746 188.094 C 528.832 183.668 530.891 177.862 533.112 173.883 C 534.431 171.519 536.897 168.827 538.519 166.660 C 538.519 166.660 538.519 166.660 538.519 166.660 C 539.284 205.311 541.068 295.484 541.069 295.497 C 536.907 295.568 527.198 295.734 527.197 295.734 C 527.231 264.312 527.311 191.005 527.311 190.994 C 527.311 190.994 527.311 190.994 527.311 190.994 Z"/>
<path fill="none" stroke="#d8872b" stroke-width="1" stroke-linecap="round" stroke-linejoin="round" d="M 541.069 295.497 C 541.069 295.497 541.069 295.497 541.069 295.497 C 541.068 295.484 539.284 205.311 538.519 166.660 C 536.897 168.827 534.431 171.519 533.112 173.883 C 530.891 177.862 528.832 183.668 527.746 188.094 C 527.537 188.948 527.442 190.124 527.311 190.994 C 527.311 190.994 527.311 190.994 527.311 190.994 C 527.311 191.005 527.231 264.312 527.197 295.734 C 527.197 295.734 527.197 295.734 527.197 295.734 C 527.198 295.734 536.907 295.568 541.069 295.497 M 538.519 166.660 C 538.519 166.660 538.519 166.660 538.519 166.660 M 527.311 190.994 C 527.311 190.994 527.311 190.994 527.311 190.994 "/>
<path fill="#fed930" fill-rule="evenodd" stroke="none" d="M 518.672 205.668 C 478.082 207.127 423.963 209.073 383.373 210.532 C 383.377 210.540 411.072 265.299 422.942 288.770 C 422.947 288.771 455.234 292.099 469.073 293.526 C 469.068 293.526 434.718 293.792 419.994 293.907 C 419.989 293.898 388.317 231.854 374.741 205.260 C 374.755 205.261 518.672 205.668 518.672 205.668 Z"/>
<path fill="none" stroke="#fed930" stroke-width="0" stroke-linecap="round" stroke-linejoin="round" d="M 383.373 210.532 C 383.373 210.532 383.373 210.532 383.373 210.532 C 423.963 209.073 478.082 207.127 518.672 205.668 C 518.672 205.668 374.755 205.261 374.741 205.260 C 374.741 205.260 374.741 205.260 374.741 205.260 C 388.317 231.854 419.989 293.898 419.994 293.907 C 419.994 293.907 419.994 293.907 419.994 293.907 C 434.718 293.792 469.068 293.526 469.073 293.526 C 469.073 293.526 469.073 293.526 469.073 293.526 C 455.234 292.099 422.947 288.771 422.942 288.770 C 422.942 288.770 422.942 288.770 422.942 288.770 C 411.072 265.299 383.377 210.540 383.373 210.532 "/>
<path fill="#fed930" fill-rule="evenodd" stroke="#fed930" stroke-width="1" stroke-linecap="round" stroke-linejoin="round" d="M 511.647 177.795 C 513.392 177.795 514.799 179.202 514.799 180.946 C 514.799 182.691 513.392 184.098 511.647 184.098 C 509.903 184.098 508.496 182.690 508.496 180.946 C 508.496 179.202 509.903 177.795 511.647 177.795 Z"/>
<path fill="#fed930" fill-rule="evenodd" stroke="#fed930" stroke-width="1" stroke-linecap="round" stroke-linejoin="round" d="M 498.981 178.461 C 500.725 178.461 502.133 179.868 502.133 181.613 C 502.133 183.357 500.725 184.765 498.981 184.765 C 497.236 184.765 495.829 183.357 495.829 181.613 C 495.829 179.868 497.237 178.461 498.981 178.461 Z"/>
<path fill="#fed930" fill-rule="evenodd" stroke="#fed930" stroke-width="1" stroke-linecap="round" stroke-linejoin="round" d="M 486.314 179.552 C 488.059 179.552 489.466 180.959 489.466 182.704 C 489.466 184.448 488.059 185.855 486.314 185.855 C 484.570 185.855 483.163 184.448 483.163 182.704 C 483.163 180.959 484.570 179.552 486.314 179.552 Z"/>
<path fill="#fed930" fill-rule="evenodd" stroke="#fed930" stroke-width="1" stroke-linecap="round" stroke-linejoin="round" d="M 448.674 182.139 C 450.418 182.139 451.825 183.546 451.826 185.290 C 451.826 187.035 450.418 188.442 448.674 188.442 C 446.929 188.442 445.522 187.035 445.522 185.290 C 445.522 183.546 446.929 182.139 448.674 182.139 Z"/>
<path fill="#fed930" fill-rule="evenodd" stroke="#fed930" stroke-width="1" stroke-linecap="round" stroke-linejoin="round" d="M 435.993 183.219 C 437.738 183.219 439.145 184.626 439.145 186.370 C 439.145 188.115 437.738 189.522 435.993 189.522 C 434.249 189.522 432.842 188.115 432.842 186.370 C 432.842 184.626 434.249 183.219 435.993 183.219 Z"/>
<path fill="#fed930" fill-rule="evenodd" stroke="#fed930" stroke-width="1" stroke-linecap="round" stroke-linejoin="round" d="M 423.419 184.274 C 425.163 184.273 426.571 185.681 426.571 187.425 C 426.571 189.169 425.163 190.577 423.419 190.576 C 421.675 190.576 420.268 189.169 420.268 187.425 C 420.268 185.681 421.675 184.274 423.419 184.274 Z"/>
<path fill="#fed930" fill-rule="evenodd" stroke="#fed930" stroke-width="1" stroke-linecap="round" stroke-linejoin="round" d="M 398.026 185.896 C 399.771 185.896 401.178 187.303 401.178 189.048 C 401.178 190.792 399.771 192.199 398.026 192.199 C 396.282 192.199 394.875 190.792 394.875 189.048 C 394.875 187.303 396.282 185.896 398.026 185.896 Z"/>
<path fill="#fed930" fill-rule="evenodd" stroke="#fed930" stroke-width="1" stroke-linecap="round" stroke-linejoin="round" d="M 385.647 186.630 C 387.392 186.630 388.799 188.037 388.799 189.781 C 388.799 191.526 387.392 192.933 385.647 192.933 C 383.903 192.933 382.496 191.525 382.496 189.781 C 382.496 188.037 383.903 186.630 385.647 186.630 Z"/>
<g id="Layer_8">
<path fill="#f29c25" fill-rule="evenodd" stroke="#f29c25" stroke-width="9" stroke-linecap="round" stroke-linejoin="round" d="M 410.124 377.179 C 410.131 377.179 479.762 377.179 479.769 377.179 C 479.769 377.194 479.769 521.642 479.769 521.656 C 479.762 521.656 410.131 521.656 410.124 521.656 C 410.124 521.642 410.124 377.194 410.124 377.179 Z"/>
<path fill="#feda2e" fill-rule="evenodd" stroke="#feda2e" stroke-width="1" stroke-linecap="round" stroke-linejoin="round" d="M 410.979 378.042 C 410.986 378.042 478.174 378.042 478.181 378.042 C 478.181 378.043 478.181 384.658 478.181 384.659 C 478.174 384.659 410.986 384.659 410.979 384.659 C 410.979 384.658 410.979 378.043 410.979 378.042 Z"/>
<path fill="none" stroke="#f29c25" stroke-width="12" stroke-linecap="round" stroke-linejoin="round" d="M 481.834 410.365 C 498.731 410.321 515.628 410.277 532.525 410.232 "/>
<path fill="none" stroke="#f29c25" stroke-width="12" stroke-linecap="round" stroke-linejoin="round" d="M 482.115 466.048 C 499.012 466.004 515.909 465.960 532.806 465.915 "/>
<path fill="none" stroke="#feda2e" stroke-width="12" stroke-linecap="round" stroke-linejoin="round" d="M 481.563 405.483 C 498.460 405.439 515.357 405.394 532.254 405.350 "/>
<path fill="none" stroke="#feda2e" stroke-width="12" stroke-linecap="round" stroke-linejoin="round" d="M 482.446 460.447 C 499.343 460.403 516.240 460.359 533.137 460.314 "/>
<path fill="#feda2e" fill-rule="evenodd" stroke="#feda2e" stroke-width="1" stroke-linecap="round" stroke-linejoin="round" d="M 410.920 390.105 C 410.927 390.105 478.223 390.105 478.229 390.105 C 478.229 390.111 478.229 448.013 478.229 448.019 C 478.223 448.019 410.927 448.019 410.920 448.019 C 410.920 448.013 410.920 390.111 410.920 390.105 Z"/>
</g>
<g id="Layer_11">
<clipPath id="cc8daa80-08cb-4194-a1b4-769783ef1c06">
<path fill="#d8872b" fill-rule="evenodd" stroke="none" d="M 794.342 178.517 C 794.342 178.517 794.342 178.517 794.342 178.517 C 773.845 178.465 746.515 178.395 726.017 178.343 C 726.017 178.343 726.017 178.343 726.017 178.343 C 723.425 268.417 717.377 478.558 717.376 478.588 C 731.626 478.507 764.872 478.319 764.877 478.319 C 762.703 468.094 759.305 454.555 757.631 444.236 C 754.913 427.479 752.431 404.929 751.571 387.975 C 751.086 378.395 751.186 365.587 751.571 356.003 C 752.089 343.109 753.410 325.927 755.124 313.137 C 756.522 302.700 759.171 288.890 761.465 278.612 C 763.383 270.021 766.339 258.649 768.899 250.226 C 771.364 242.118 775.099 231.441 778.154 223.536 C 780.547 217.345 784.077 209.223 786.816 203.177 C 789.523 197.201 796.294 183.471 796.295 183.469 C 796.310 182.537 796.599 181.259 796.343 180.363 C 796.233 179.980 795.961 179.492 795.674 179.216 C 795.349 178.903 794.343 178.517 794.342 178.517 C 794.342 178.517 794.342 178.517 794.342 178.517 Z"/>
</clipPath>
<path fill="#d8872b" fill-rule="evenodd" stroke="none" d="M 794.342 178.517 C 794.342 178.517 794.342 178.517 794.342 178.517 C 773.845 178.465 746.515 178.395 726.017 178.343 C 726.017 178.343 726.017 178.343 726.017 178.343 C 723.425 268.417 717.377 478.558 717.376 478.588 C 731.626 478.507 764.872 478.319 764.877 478.319 C 762.703 468.094 759.305 454.555 757.631 444.236 C 754.913 427.479 752.431 404.929 751.571 387.975 C 751.086 378.395 751.186 365.587 751.571 356.003 C 752.089 343.109 753.410 325.927 755.124 313.137 C 756.522 302.700 759.171 288.890 761.465 278.612 C 763.383 270.021 766.339 258.649 768.899 250.226 C 771.364 242.118 775.099 231.441 778.154 223.536 C 780.547 217.345 784.077 209.223 786.816 203.177 C 789.523 197.201 796.294 183.471 796.295 183.469 C 796.310 182.537 796.599 181.259 796.343 180.363 C 796.233 179.980 795.961 179.492 795.674 179.216 C 795.349 178.903 794.343 178.517 794.342 178.517 C 794.342 178.517 794.342 178.517 794.342 178.517 Z"/>
<path fill="none" stroke="#d8872b" stroke-width="1" stroke-linecap="round" stroke-linejoin="round" d="M 764.877 478.319 C 764.877 478.319 764.877 478.319 764.877 478.319 C 764.872 478.319 731.626 478.507 717.376 478.588 C 717.376 478.588 717.376 478.588 717.376 478.588 C 717.377 478.558 723.425 268.417 726.017 178.343 C 746.515 178.395 773.845 178.465 794.342 178.517 C 794.342 178.517 794.342 178.517 794.342 178.517 C 794.343 178.517 795.349 178.903 795.674 179.216 C 795.961 179.492 796.233 179.980 796.343 180.363 C 796.599 181.259 796.310 182.537 796.295 183.469 C 796.295 183.469 796.295 183.469 796.295 183.469 C 796.294 183.471 789.523 197.201 786.816 203.177 C 784.077 209.223 780.547 217.345 778.154 223.536 C 775.099 231.441 771.364 242.118 768.899 250.226 C 766.339 258.649 763.383 270.021 761.465 278.612 C 759.171 288.890 756.522 302.700 755.124 313.137 C 753.410 325.927 752.089 343.109 751.571 356.003 C 751.186 365.587 751.086 378.395 751.571 387.975 C 752.431 404.929 754.913 427.479 757.631 444.236 C 759.305 454.555 762.703 468.094 764.877 478.319 M 726.017 178.343 C 726.017 178.343 726.017 178.343 726.017 178.343 M 794.342 178.517 C 794.342 178.517 794.342 178.517 794.342 178.517 "/>
<path fill="#f29c25" fill-rule="evenodd" stroke="none" d="M 725.024 463.031 C 724.797 469.621 724.216 478.395 723.869 484.980 C 723.875 484.980 761.471 484.980 777.586 484.980 C 777.585 484.974 769.261 444.579 768.003 426.992 C 764.915 383.826 766.027 325.471 773.487 282.842 C 779.342 249.379 797.067 207.164 807.174 174.730 C 807.171 174.730 787.083 175.484 778.472 175.807 C 776.638 178.804 774.048 182.718 772.357 185.799 C 769.010 191.897 765.007 200.284 762.313 206.697 C 756.485 220.566 749.957 239.577 745.612 253.980 C 742.548 264.137 739.175 277.892 736.876 288.249 C 733.112 305.209 728.069 327.900 726.278 345.180 C 722.633 380.349 726.244 427.695 725.024 463.031 M 778.472 175.807 C 778.472 175.807 778.472 175.807 778.472 175.807 Z" clip-path="url(#cc8daa80-08cb-4194-a1b4-769783ef1c06)"/>
<path fill="none" stroke="#f29c25" stroke-width="1" stroke-linecap="round" stroke-linejoin="round" d="M 723.869 484.980 C 723.869 484.980 723.869 484.980 723.869 484.980 C 724.216 478.395 724.797 469.621 725.024 463.031 C 726.244 427.695 722.633 380.349 726.278 345.180 C 728.069 327.900 733.112 305.209 736.876 288.249 C 739.175 277.892 742.548 264.137 745.612 253.980 C 749.957 239.577 756.485 220.566 762.313 206.697 C 765.007 200.284 769.010 191.897 772.357 185.799 C 774.048 182.718 776.638 178.804 778.472 175.807 C 778.472 175.807 778.472 175.807 778.472 175.807 C 787.083 175.484 807.171 174.730 807.174 174.730 C 807.174 174.730 807.174 174.730 807.174 174.730 C 797.067 207.164 779.342 249.379 773.487 282.842 C 766.027 325.471 764.915 383.826 768.003 426.992 C 769.261 444.579 777.585 484.974 777.586 484.980 C 777.586 484.980 777.586 484.980 777.586 484.980 C 761.471 484.980 723.875 484.980 723.869 484.980 " clip-path="url(#cc8daa80-08cb-4194-a1b4-769783ef1c06)"/>
</g>
<path fill="#3b3b3b" fill-rule="evenodd" stroke="none" d="M 807.803 471.608 C 807.803 471.608 807.803 471.608 807.803 471.608 C 784.223 471.499 752.783 471.353 729.203 471.243 C 729.203 471.243 729.203 471.243 729.203 471.243 C 729.149 477.532 729.024 492.203 729.024 492.205 C 739.126 497.750 751.984 506.445 762.698 510.688 C 777.845 516.686 800.346 517.545 815.403 523.765 C 832.479 530.819 868.091 555.641 868.096 555.644 C 870.287 553.233 873.255 550.061 875.400 547.609 C 882.658 539.314 893.082 528.736 898.930 519.394 C 900.197 517.372 902.046 514.604 902.424 512.248 C 902.686 510.614 902.342 508.328 901.789 506.768 C 901.300 505.389 899.197 502.636 899.196 502.636 C 898.239 503.467 897.003 504.625 896.004 505.407 C 895.465 505.829 894.804 506.544 894.146 506.733 C 892.899 507.091 891.119 506.524 889.846 506.273 C 886.527 505.618 882.243 504.117 879.072 502.934 C 872.714 500.563 864.484 496.750 858.434 493.678 C 849.463 489.122 838.531 481.098 829.363 476.953 C 825.588 475.247 820.410 473.170 816.356 472.320 C 813.836 471.792 807.804 471.608 807.803 471.608 C 807.803 471.608 807.803 471.608 807.803 471.608 Z"/>
<path fill="none" stroke="#3b3b3b" stroke-width="1" stroke-linecap="round" stroke-linejoin="round" d="M 868.096 555.644 C 868.096 555.644 868.096 555.644 868.096 555.644 C 868.091 555.641 832.479 530.819 815.403 523.765 C 800.346 517.545 777.845 516.686 762.698 510.688 C 751.984 506.445 739.126 497.750 729.024 492.205 C 729.024 492.205 729.024 492.205 729.024 492.205 C 729.024 492.203 729.149 477.532 729.203 471.243 C 752.783 471.353 784.223 471.499 807.803 471.608 C 807.803 471.608 807.803 471.608 807.803 471.608 C 807.804 471.608 813.836 471.792 816.356 472.320 C 820.410 473.170 825.588 475.247 829.363 476.953 C 838.531 481.098 849.463 489.122 858.434 493.678 C 864.484 496.750 872.714 500.563 879.072 502.934 C 882.243 504.117 886.527 505.618 889.846 506.273 C 891.119 506.524 892.899 507.091 894.146 506.733 C 894.804 506.544 895.465 505.829 896.004 505.407 C 897.003 504.625 898.239 503.467 899.196 502.636 C 899.196 502.636 899.196 502.636 899.196 502.636 C 899.197 502.636 901.300 505.389 901.789 506.768 C 902.342 508.328 902.686 510.614 902.424 512.248 C 902.046 514.604 900.197 517.372 898.930 519.394 C 893.082 528.736 882.658 539.314 875.400 547.609 C 873.255 550.061 870.287 553.233 868.096 555.644 M 729.203 471.243 C 729.203 471.243 729.203 471.243 729.203 471.243 M 807.803 471.608 C 807.803 471.608 807.803 471.608 807.803 471.608 "/>
<path fill="none" stroke="#636363" stroke-width="3" stroke-linecap="round" stroke-linejoin="round" d="M 802.405 476.214 C 802.406 476.214 809.140 476.856 811.981 477.411 C 815.038 478.008 819.095 479.000 822.007 480.104 C 827.244 482.089 833.686 485.974 838.616 488.633 C 844.485 491.799 852.049 496.492 857.952 499.595 C 862.116 501.784 867.698 504.672 872.043 506.477 C 875.154 507.769 879.385 509.317 882.639 510.191 C 885.314 510.909 888.945 511.707 891.705 511.938 C 892.391 511.996 893.999 511.938 893.999 511.938 M 733.424 475.914 C 733.431 475.914 781.711 476.124 802.405 476.214 C 802.405 476.214 802.405 476.214 802.405 476.214 "/>
<g id="Layer_9">
<clipPath id="3d4d2294-8cb5-41b6-ab1a-52c4f78f7d9d">
<path fill="#f29c25" fill-rule="evenodd" stroke="none" d="M 541.770 168.035 C 541.788 168.035 722.173 168.035 722.191 168.035 C 722.191 168.068 722.191 495.704 722.191 495.737 C 722.173 495.737 541.788 495.737 541.770 495.737 C 541.770 495.704 541.770 168.068 541.770 168.035 Z"/>
</clipPath>
<path fill="#f29c25" fill-rule="evenodd" stroke="#f29c25" stroke-width="16" stroke-linecap="round" stroke-linejoin="round" d="M 541.770 168.035 C 541.788 168.035 722.173 168.035 722.191 168.035 C 722.191 168.068 722.191 495.704 722.191 495.737 C 722.173 495.737 541.788 495.737 541.770 495.737 C 541.770 495.704 541.770 168.068 541.770 168.035 Z"/>
<path fill="#feda2e" fill-rule="evenodd" stroke="none" d="M 547.618 170.209 C 598.400 170.182 666.109 170.057 716.891 169.992 C 716.892 169.992 718.475 170.254 719.048 170.608 C 719.661 170.985 720.239 171.800 720.666 172.380 C 721.016 172.855 721.367 173.566 721.667 174.074 C 721.667 174.106 721.918 397.372 722.026 493.071 C 722.027 493.071 731.422 492.842 735.449 492.744 C 735.448 492.710 734.643 257.047 734.298 156.034 C 734.278 156.035 592.888 157.258 532.283 157.782 C 532.691 163.670 533.234 171.519 533.642 177.407 C 534.682 176.051 535.880 174.076 537.107 172.888 C 537.933 172.088 539.127 171.040 540.198 170.621 C 541.184 170.236 542.645 170.271 543.702 170.209 C 544.875 170.139 546.443 170.209 547.618 170.209 M 533.642 177.407 C 533.642 177.407 533.642 177.407 533.642 177.407 M 532.283 157.782 C 532.283 157.782 532.283 157.782 532.283 157.782 Z" clip-path="url(#3d4d2294-8cb5-41b6-ab1a-52c4f78f7d9d)"/>
<path fill="none" stroke="#feda2e" stroke-width="1" stroke-linecap="round" stroke-linejoin="round" d="M 716.891 169.992 C 716.891 169.992 716.891 169.992 716.891 169.992 C 666.109 170.057 598.400 170.182 547.618 170.209 C 546.443 170.209 544.875 170.139 543.702 170.209 C 542.645 170.271 541.184 170.236 540.198 170.621 C 539.127 171.040 537.933 172.088 537.107 172.888 C 535.880 174.076 534.682 176.051 533.642 177.407 C 533.642 177.407 533.642 177.407 533.642 177.407 C 533.234 171.519 532.691 163.670 532.283 157.782 C 532.283 157.782 532.283 157.782 532.283 157.782 C 592.888 157.258 734.278 156.035 734.298 156.034 C 734.298 156.034 734.298 156.034 734.298 156.034 C 734.643 257.047 735.448 492.710 735.449 492.744 C 735.449 492.744 735.449 492.744 735.449 492.744 C 731.422 492.842 722.027 493.071 722.026 493.071 C 722.026 493.071 722.026 493.071 722.026 493.071 C 721.918 397.372 721.667 174.106 721.667 174.074 C 721.667 174.074 721.667 174.074 721.667 174.074 C 721.367 173.566 721.016 172.855 720.666 172.380 C 720.239 171.800 719.661 170.985 719.048 170.608 C 718.475 170.254 716.892 169.992 716.891 169.992 " clip-path="url(#3d4d2294-8cb5-41b6-ab1a-52c4f78f7d9d)"/>
<path fill="none" stroke="#d8872b" stroke-width="8" stroke-linecap="round" stroke-linejoin="round" d="M 583.443 194.239 C 617.315 194.122 651.188 194.006 685.060 193.889 " clip-path="url(#3d4d2294-8cb5-41b6-ab1a-52c4f78f7d9d)"/>
<path fill="#feda2e" fill-rule="evenodd" stroke="#feda2e" stroke-width="1" stroke-linecap="round" stroke-linejoin="round" d="M 628.933 260.845 C 662.008 260.845 688.689 287.526 688.689 320.601 C 688.689 353.675 662.008 380.356 628.933 380.356 C 595.859 380.356 569.178 353.675 569.178 320.601 C 569.178 287.526 595.859 260.845 628.933 260.845 Z" clip-path="url(#3d4d2294-8cb5-41b6-ab1a-52c4f78f7d9d)"/>
<path fill="#005e9e" fill-rule="evenodd" stroke="#005e9e" stroke-width="1" stroke-linecap="round" stroke-linejoin="round" d="M 630.264 275.912 C 654.464 275.912 673.985 295.433 673.985 319.633 C 673.986 343.832 654.464 363.354 630.264 363.354 C 606.065 363.355 586.542 343.832 586.543 319.633 C 586.543 295.433 606.065 275.911 630.264 275.912 Z" clip-path="url(#3d4d2294-8cb5-41b6-ab1a-52c4f78f7d9d)"/>
<path fill="#f19c25" fill-rule="evenodd" stroke="#f19c25" stroke-width="1" stroke-linecap="round" stroke-linejoin="round" d="M 630.352 263.095 C 633.015 263.095 635.163 265.243 635.163 267.905 C 635.163 270.568 633.015 272.716 630.352 272.716 C 627.690 272.716 625.542 270.568 625.542 267.905 C 625.542 265.243 627.690 263.095 630.352 263.095 Z" clip-path="url(#3d4d2294-8cb5-41b6-ab1a-52c4f78f7d9d)"/>
<path fill="#f19c25" fill-rule="evenodd" stroke="#f19c25" stroke-width="1" stroke-linecap="round" stroke-linejoin="round" d="M 656.532 271.049 C 659.194 271.049 661.342 273.197 661.342 275.860 C 661.342 278.522 659.195 280.670 656.532 280.670 C 653.869 280.670 651.721 278.522 651.721 275.860 C 651.721 273.197 653.869 271.049 656.532 271.049 Z" clip-path="url(#3d4d2294-8cb5-41b6-ab1a-52c4f78f7d9d)"/>
<path fill="#f19c25" fill-rule="evenodd" stroke="#f19c25" stroke-width="1" stroke-linecap="round" stroke-linejoin="round" d="M 675.045 290.624 C 677.707 290.624 679.855 292.772 679.855 295.435 C 679.855 298.097 677.707 300.245 675.045 300.245 C 672.382 300.245 670.234 298.097 670.234 295.435 C 670.234 292.772 672.382 290.624 675.045 290.624 Z" clip-path="url(#3d4d2294-8cb5-41b6-ab1a-52c4f78f7d9d)"/>
<path fill="#f19c25" fill-rule="evenodd" stroke="#f19c25" stroke-width="1" stroke-linecap="round" stroke-linejoin="round" d="M 681.639 316.999 C 684.301 316.999 686.449 319.147 686.449 321.809 C 686.449 324.472 684.301 326.620 681.639 326.620 C 678.976 326.620 676.828 324.472 676.828 321.809 C 676.828 319.147 678.976 316.999 681.639 316.999 Z" clip-path="url(#3d4d2294-8cb5-41b6-ab1a-52c4f78f7d9d)"/>
<path fill="#f19c25" fill-rule="evenodd" stroke="#f19c25" stroke-width="1" stroke-linecap="round" stroke-linejoin="round" d="M 673.912 343.043 C 676.574 343.043 678.722 345.190 678.722 347.853 C 678.722 350.515 676.574 352.663 673.912 352.664 C 671.249 352.664 669.101 350.516 669.101 347.853 C 669.101 345.190 671.249 343.043 673.912 343.043 Z" clip-path="url(#3d4d2294-8cb5-41b6-ab1a-52c4f78f7d9d)"/>
<path fill="#f19c25" fill-rule="evenodd" stroke="#f19c25" stroke-width="1" stroke-linecap="round" stroke-linejoin="round" d="M 654.164 362.122 C 656.827 362.122 658.974 364.270 658.975 366.933 C 658.975 369.595 656.827 371.743 654.164 371.743 C 651.502 371.743 649.353 369.595 649.354 366.933 C 649.354 364.270 651.502 362.122 654.164 362.122 Z" clip-path="url(#3d4d2294-8cb5-41b6-ab1a-52c4f78f7d9d)"/>
<path fill="#f19c25" fill-rule="evenodd" stroke="#f19c25" stroke-width="1" stroke-linecap="round" stroke-linejoin="round" d="M 627.835 368.419 C 630.497 368.419 632.645 370.566 632.645 373.229 C 632.645 375.892 630.497 378.040 627.835 378.040 C 625.172 378.040 623.024 375.892 623.024 373.229 C 623.024 370.566 625.172 368.419 627.835 368.419 Z" clip-path="url(#3d4d2294-8cb5-41b6-ab1a-52c4f78f7d9d)"/>
<path fill="#f19c25" fill-rule="evenodd" stroke="#f19c25" stroke-width="1" stroke-linecap="round" stroke-linejoin="round" d="M 601.359 360.842 C 604.022 360.842 606.170 362.990 606.170 365.652 C 606.170 368.315 604.022 370.463 601.359 370.463 C 598.697 370.463 596.549 368.315 596.549 365.652 C 596.549 362.989 598.697 360.842 601.359 360.842 Z" clip-path="url(#3d4d2294-8cb5-41b6-ab1a-52c4f78f7d9d)"/>
<path fill="#f19c25" fill-rule="evenodd" stroke="#f19c25" stroke-width="1" stroke-linecap="round" stroke-linejoin="round" d="M 582.720 340.892 C 585.382 340.892 587.530 343.040 587.530 345.703 C 587.530 348.365 585.382 350.513 582.720 350.513 C 580.057 350.513 577.909 348.365 577.909 345.703 C 577.909 343.040 580.057 340.892 582.720 340.892 Z" clip-path="url(#3d4d2294-8cb5-41b6-ab1a-52c4f78f7d9d)"/>
<path fill="#f19c25" fill-rule="evenodd" stroke="#f19c25" stroke-width="1" stroke-linecap="round" stroke-linejoin="round" d="M 576.266 314.573 C 578.929 314.573 581.077 316.721 581.077 319.383 C 581.077 322.046 578.929 324.194 576.266 324.194 C 573.604 324.194 571.456 322.046 571.456 319.383 C 571.456 316.721 573.604 314.573 576.266 314.573 Z" clip-path="url(#3d4d2294-8cb5-41b6-ab1a-52c4f78f7d9d)"/>
<path fill="#f19c25" fill-rule="evenodd" stroke="#f19c25" stroke-width="1" stroke-linecap="round" stroke-linejoin="round" d="M 584.032 288.279 C 586.694 288.279 588.842 290.426 588.842 293.089 C 588.842 295.752 586.694 297.900 584.032 297.900 C 581.369 297.900 579.221 295.752 579.221 293.089 C 579.221 290.426 581.369 288.279 584.032 288.279 Z" clip-path="url(#3d4d2294-8cb5-41b6-ab1a-52c4f78f7d9d)"/>
<path fill="#f19c25" fill-rule="evenodd" stroke="#f19c25" stroke-width="1" stroke-linecap="round" stroke-linejoin="round" d="M 603.900 269.672 C 606.563 269.672 608.711 271.820 608.711 274.482 C 608.711 277.145 606.563 279.293 603.900 279.293 C 601.238 279.293 599.090 277.145 599.090 274.482 C 599.090 271.819 601.238 269.672 603.900 269.672 Z" clip-path="url(#3d4d2294-8cb5-41b6-ab1a-52c4f78f7d9d)"/>
<path fill="#0194fb" fill-rule="evenodd" stroke="#0194fb" stroke-width="1" stroke-linecap="round" stroke-linejoin="round" d="M 635.565 284.033 C 635.565 284.033 635.565 284.033 635.565 284.033 C 621.931 297.635 603.753 315.771 590.118 329.372 C 590.118 329.372 589.487 326.832 589.366 325.719 C 589.145 323.668 589.120 320.891 589.366 318.843 C 589.740 315.739 590.894 311.689 591.945 308.744 C 592.623 306.842 593.728 304.368 594.738 302.620 C 596.355 299.823 598.775 296.183 601.077 293.917 C 603.601 291.433 607.556 288.684 610.747 287.149 C 614.166 285.503 619.130 284.130 622.887 283.603 C 626.016 283.164 630.278 283.251 633.417 283.603 C 634.070 283.676 635.565 284.033 635.565 284.033 C 635.565 284.033 635.565 284.033 635.565 284.033 Z" clip-path="url(#3d4d2294-8cb5-41b6-ab1a-52c4f78f7d9d)"/>
<path fill="#0194fb" fill-rule="evenodd" stroke="none" d="M 654.368 293.857 C 656.253 295.661 658.327 298.483 660.024 300.466 C 660.018 300.471 622.452 338.187 606.350 354.353 C 606.349 354.352 601.192 350.260 599.281 348.197 C 597.613 346.394 595.850 343.608 594.379 341.641 C 594.384 341.636 647.559 288.530 647.559 288.530 C 649.602 290.128 652.494 292.064 654.368 293.857 Z" clip-path="url(#3d4d2294-8cb5-41b6-ab1a-52c4f78f7d9d)"/>
<path fill="none" stroke="#0194fb" stroke-width="1" stroke-linecap="round" stroke-linejoin="round" d="M 660.024 300.466 C 660.024 300.466 660.024 300.466 660.024 300.466 C 658.327 298.483 656.253 295.661 654.368 293.857 C 652.494 292.064 649.602 290.128 647.559 288.530 C 647.559 288.530 594.384 341.636 594.379 341.641 C 594.379 341.641 594.379 341.641 594.379 341.641 C 595.850 343.608 597.613 346.394 599.281 348.197 C 601.192 350.260 606.349 354.352 606.350 354.353 C 606.350 354.353 606.350 354.353 606.350 354.353 C 622.452 338.187 660.018 300.471 660.024 300.466 " clip-path="url(#3d4d2294-8cb5-41b6-ab1a-52c4f78f7d9d)"/>
<path fill="#0194fb" fill-rule="evenodd" stroke="#0194fb" stroke-width="1" stroke-linecap="round" stroke-linejoin="round" d="M 666.180 323.342 C 666.180 323.342 666.180 323.342 666.180 323.342 C 655.127 334.325 640.390 348.969 629.338 359.952 C 629.338 359.952 634.550 359.878 636.722 359.414 C 639.392 358.844 642.832 357.511 645.259 356.261 C 648.298 354.696 652.156 352.145 654.643 349.800 C 657.215 347.374 660.194 343.605 661.872 340.493 C 663.608 337.276 665.110 332.547 665.795 328.956 C 666.111 327.298 666.180 323.342 666.180 323.342 C 666.180 323.342 666.180 323.342 666.180 323.342 Z" clip-path="url(#3d4d2294-8cb5-41b6-ab1a-52c4f78f7d9d)"/>
<path fill="none" stroke="#d8872b" stroke-width="7" stroke-linecap="round" stroke-linejoin="round" d="M 583.518 466.165 C 617.997 466.021 652.476 465.876 686.955 465.731 " clip-path="url(#3d4d2294-8cb5-41b6-ab1a-52c4f78f7d9d)"/>
</g>
<g id="Layer_13">
<clipPath id="f95baa19-9d5a-4f3d-945c-ee4c4caa87fe">
<path fill="#a5a5a5" fill-rule="evenodd" stroke="none" d="M 482.039 490.974 C 488.294 490.950 496.634 490.857 502.889 490.834 C 514.518 490.793 530.023 490.836 541.652 490.834 C 624.362 490.825 734.660 489.093 817.354 490.759 C 818.307 490.778 819.582 490.766 820.530 490.866 C 824.067 491.238 828.784 492.043 832.161 493.157 C 836.114 494.460 841.165 496.910 844.673 499.149 C 848.314 501.471 852.851 505.135 855.776 508.312 C 859.251 512.089 863.144 517.834 865.468 522.410 C 866.901 525.233 868.360 529.241 869.081 532.323 C 870.061 536.515 870.582 542.293 870.548 546.598 C 870.509 551.557 869.948 558.250 868.547 563.008 C 867.120 567.856 864.051 573.996 861.192 578.163 C 858.408 582.220 853.821 587.049 850.011 590.162 C 846.881 592.718 842.205 595.513 838.557 597.252 C 834.494 599.190 828.774 601.195 824.377 602.160 C 821.403 602.813 817.295 602.787 814.286 603.251 C 806.000 604.531 795.281 608.161 786.941 609.026 C 779.119 609.838 768.591 609.026 760.726 609.026 C 732.389 609.026 694.601 609.550 666.268 609.026 C 647.887 608.686 623.406 607.276 605.026 606.852 C 573.434 606.122 531.212 608.151 499.693 605.872 C 492.623 605.360 483.230 604.182 476.237 603.021 C 471.632 602.256 465.420 601.363 461.002 599.856 C 456.224 598.228 449.966 595.442 445.883 592.473 C 442.085 589.711 437.723 585.049 434.983 581.234 C 431.221 575.997 427.362 568.150 425.324 562.032 C 424.433 559.358 423.816 555.619 423.474 552.822 C 423.086 549.654 422.718 545.371 423.011 542.193 C 423.467 537.255 425.096 530.740 426.939 526.135 C 428.554 522.102 431.498 517.024 434.109 513.551 C 436.697 510.108 440.790 505.990 444.116 503.253 C 446.599 501.209 450.227 498.862 453.062 497.343 C 455.522 496.025 459.001 494.661 461.620 493.699 C 463.552 492.990 466.164 492.120 468.167 491.644 C 469.292 491.376 470.827 491.186 471.967 490.990 C 471.967 490.990 471.967 490.990 471.967 490.990 C 471.966 490.985 479.017 490.986 482.039 490.974 Z"/>
</clipPath>
<path fill="#a5a5a5" fill-rule="evenodd" stroke="#a5a5a5" stroke-width="1" stroke-linecap="round" stroke-linejoin="round" d="M 482.039 490.974 C 488.294 490.950 496.634 490.857 502.889 490.834 C 514.518 490.793 530.023 490.836 541.652 490.834 C 624.362 490.825 734.660 489.093 817.354 490.759 C 818.307 490.778 819.582 490.766 820.530 490.866 C 824.067 491.238 828.784 492.043 832.161 493.157 C 836.114 494.460 841.165 496.910 844.673 499.149 C 848.314 501.471 852.851 505.135 855.776 508.312 C 859.251 512.089 863.144 517.834 865.468 522.410 C 866.901 525.233 868.360 529.241 869.081 532.323 C 870.061 536.515 870.582 542.293 870.548 546.598 C 870.509 551.557 869.948 558.250 868.547 563.008 C 867.120 567.856 864.051 573.996 861.192 578.163 C 858.408 582.220 853.821 587.049 850.011 590.162 C 846.881 592.718 842.205 595.513 838.557 597.252 C 834.494 599.190 828.774 601.195 824.377 602.160 C 821.403 602.813 817.295 602.787 814.286 603.251 C 806.000 604.531 795.281 608.161 786.941 609.026 C 779.119 609.838 768.591 609.026 760.726 609.026 C 732.389 609.026 694.601 609.550 666.268 609.026 C 647.887 608.686 623.406 607.276 605.026 606.852 C 573.434 606.122 531.212 608.151 499.693 605.872 C 492.623 605.360 483.230 604.182 476.237 603.021 C 471.632 602.256 465.420 601.363 461.002 599.856 C 456.224 598.228 449.966 595.442 445.883 592.473 C 442.085 589.711 437.723 585.049 434.983 581.234 C 431.221 575.997 427.362 568.150 425.324 562.032 C 424.433 559.358 423.816 555.619 423.474 552.822 C 423.086 549.654 422.718 545.371 423.011 542.193 C 423.467 537.255 425.096 530.740 426.939 526.135 C 428.554 522.102 431.498 517.024 434.109 513.551 C 436.697 510.108 440.790 505.990 444.116 503.253 C 446.599 501.209 450.227 498.862 453.062 497.343 C 455.522 496.025 459.001 494.661 461.620 493.699 C 463.552 492.990 466.164 492.120 468.167 491.644 C 469.292 491.376 470.827 491.186 471.967 490.990 C 471.967 490.990 471.967 490.990 471.967 490.990 C 471.966 490.985 479.017 490.986 482.039 490.974 Z"/>
<path fill="#878787" fill-rule="evenodd" stroke="none" d="M 459.140 559.200 C 459.140 559.200 459.140 559.200 459.140 559.200 C 458.033 558.954 456.536 558.710 455.452 558.380 C 450.418 556.846 443.912 554.093 439.267 551.619 C 433.124 548.348 425.757 542.607 419.967 538.744 C 419.967 538.744 419.967 538.744 419.967 538.744 C 420.216 546.813 419.109 557.745 420.795 565.639 C 423.296 577.343 427.689 594.220 436.511 602.308 C 439.816 605.338 445.964 606.966 450.321 608.023 C 523.622 625.806 626.285 611.777 701.711 612.069 C 732.279 612.188 773.253 615.061 803.603 611.414 C 812.484 610.347 824.603 608.856 832.762 605.189 C 843.197 600.499 856.518 591.520 863.231 582.256 C 867.172 576.815 869.834 567.887 871.094 561.287 C 872.356 554.679 871.509 538.866 871.509 538.863 C 868.490 541.543 864.666 545.363 861.444 547.796 C 858.654 549.903 854.765 552.535 851.631 554.086 C 848.678 555.549 844.505 557.034 841.315 557.861 C 839.315 558.379 836.560 558.653 834.521 558.993 C 834.521 558.993 834.521 558.993 834.521 558.993 C 721.907 559.055 459.177 559.200 459.140 559.200 C 459.140 559.200 459.140 559.200 459.140 559.200 Z" clip-path="url(#f95baa19-9d5a-4f3d-945c-ee4c4caa87fe)"/>
<path fill="none" stroke="#878787" stroke-width="1" stroke-linecap="round" stroke-linejoin="round" d="M 871.509 538.863 C 871.509 538.863 871.509 538.863 871.509 538.863 C 871.509 538.866 872.356 554.679 871.094 561.287 C 869.834 567.887 867.172 576.815 863.231 582.256 C 856.518 591.520 843.197 600.499 832.762 605.189 C 824.603 608.856 812.484 610.347 803.603 611.414 C 773.253 615.061 732.279 612.188 701.711 612.069 C 626.285 611.777 523.622 625.806 450.321 608.023 C 445.964 606.966 439.816 605.338 436.511 602.308 C 427.689 594.220 423.296 577.343 420.795 565.639 C 419.109 557.745 420.216 546.813 419.967 538.744 C 425.757 542.607 433.124 548.348 439.267 551.619 C 443.912 554.093 450.418 556.846 455.452 558.380 C 456.536 558.710 458.033 558.954 459.140 559.200 C 459.140 559.200 459.140 559.200 459.140 559.200 C 459.177 559.200 721.907 559.055 834.521 558.993 C 836.560 558.653 839.315 558.379 841.315 557.861 C 844.505 557.034 848.678 555.549 851.631 554.086 C 854.765 552.535 858.654 549.903 861.444 547.796 C 864.666 545.363 868.490 541.543 871.509 538.863 M 419.967 538.744 C 419.967 538.744 419.967 538.744 419.967 538.744 M 834.521 558.993 C 834.521 558.993 834.521 558.993 834.521 558.993 M 459.140 559.200 C 459.140 559.200 459.140 559.200 459.140 559.200 " clip-path="url(#f95baa19-9d5a-4f3d-945c-ee4c4caa87fe)"/>
</g>
<path fill="none" stroke="#3b3b3b" stroke-width="9" stroke-linecap="round" stroke-linejoin="round" d="M 420.640 529.112 C 420.679 529.112 813.575 529.729 813.575 529.729 C 813.678 554.842 813.919 613.432 813.919 613.440 "/>
<path fill="none" stroke="#3b3b3b" stroke-width="9" stroke-linecap="round" stroke-linejoin="round" d="M 421.219 530.377 C 431.643 557.739 442.067 585.102 452.491 612.465 "/>
<path fill="none" stroke="#3b3b3b" stroke-width="9" stroke-linecap="round" stroke-linejoin="round" d="M 453.271 607.164 C 576.936 607.382 700.600 607.600 824.265 607.818 "/>
<path fill="#3b3b3b" fill-rule="evenodd" stroke="#3b3b3b" stroke-width="1" stroke-linecap="round" stroke-linejoin="round" d="M 514.509 484.479 C 514.511 484.479 533.097 484.479 533.098 484.479 C 533.098 484.491 533.098 606.494 533.098 606.506 C 533.097 606.506 514.511 606.506 514.509 606.506 C 514.509 606.494 514.509 484.491 514.509 484.479 Z"/>
<path fill="#3b3b3b" fill-rule="evenodd" stroke="#3b3b3b" stroke-width="1" stroke-linecap="round" stroke-linejoin="round" d="M 760.840 486.737 C 760.842 486.737 780.020 486.737 780.022 486.737 C 780.022 486.748 780.022 605.732 780.022 605.744 C 780.020 605.744 760.842 605.744 760.840 605.744 C 760.840 605.732 760.840 486.748 760.840 486.737 Z"/>
<g id="Layer_14">
<path fill="#5e5e5e" fill-rule="evenodd" stroke="none" d="M 958.066 443.537 C 958.066 443.537 958.066 443.537 958.066 443.537 C 959.232 441.101 960.788 437.852 961.955 435.416 C 961.955 435.416 961.955 435.416 961.955 435.416 C 963.019 435.965 965.500 437.246 965.500 437.246 C 964.437 439.717 961.955 445.481 961.955 445.482 C 960.788 444.898 958.066 443.538 958.066 443.537 C 958.066 443.537 958.066 443.537 958.066 443.537 Z"/>
<path fill="none" stroke="#5e5e5e" stroke-width="1" stroke-linecap="round" stroke-linejoin="round" d="M 965.500 437.246 C 965.500 437.246 965.500 437.246 965.500 437.246 C 965.500 437.246 963.019 435.965 961.955 435.416 C 960.788 437.852 959.232 441.101 958.066 443.537 C 958.066 443.537 958.066 443.537 958.066 443.537 C 958.066 443.538 960.788 444.898 961.955 445.482 C 961.955 445.482 961.955 445.482 961.955 445.482 C 961.955 445.481 964.437 439.717 965.500 437.246 M 961.955 435.416 C 961.955 435.416 961.955 435.416 961.955 435.416 M 958.066 443.537 C 958.066 443.537 958.066 443.537 958.066 443.537 "/>
<path fill="#00fefe" fill-rule="evenodd" stroke="#00fefe" stroke-width="1" stroke-linecap="round" stroke-linejoin="round" d="M 962.048 444.320 C 962.048 444.320 962.048 444.320 962.048 444.320 C 962.703 444.873 963.701 445.491 964.231 446.164 C 965.303 447.526 966.328 449.704 966.666 451.404 C 967.137 453.775 966.773 457.103 966.190 459.449 C 965.574 461.925 964.045 465.045 962.643 467.177 C 961.469 468.963 959.545 471.128 957.903 472.497 C 956.415 473.738 954.263 475.349 952.398 475.873 C 950.898 476.295 948.739 476.202 947.205 475.925 C 946.473 475.793 945.570 475.343 944.869 475.094 C 944.869 475.094 956.894 453.552 962.048 444.320 Z"/>
<path fill="#3b3b3b" fill-rule="evenodd" stroke="none" d="M 954.681 445.863 C 950.209 453.089 945.113 463.230 941.012 470.674 C 941.012 470.674 940.786 471.517 940.740 471.887 C 940.661 472.516 940.713 473.367 940.701 474.001 C 940.701 474.001 941.682 474.817 942.149 475.097 C 942.703 475.430 943.474 475.866 944.107 475.998 C 944.510 476.082 945.066 475.998 945.477 475.998 C 945.479 475.995 957.354 454.483 962.444 445.262 C 962.444 445.262 962.484 443.984 962.248 443.511 C 961.957 442.930 961.212 442.372 960.646 442.050 C 960.178 441.784 959.447 441.677 958.932 441.517 C 958.385 441.738 957.575 441.894 957.107 442.255 C 956.076 443.054 955.368 444.754 954.681 445.863 M 958.932 441.517 C 958.932 441.517 958.932 441.517 958.932 441.517 Z"/>
<path fill="none" stroke="#3b3b3b" stroke-width="1" stroke-linecap="round" stroke-linejoin="round" d="M 941.012 470.674 C 941.012 470.674 941.012 470.674 941.012 470.674 C 945.113 463.230 950.209 453.089 954.681 445.863 C 955.368 444.754 956.076 443.054 957.107 442.255 C 957.575 441.894 958.385 441.738 958.932 441.517 C 958.932 441.517 958.932 441.517 958.932 441.517 C 959.447 441.677 960.178 441.784 960.646 442.050 C 961.212 442.372 961.957 442.930 962.248 443.511 C 962.484 443.984 962.444 445.262 962.444 445.262 C 962.444 445.262 962.444 445.262 962.444 445.262 C 957.354 454.483 945.479 475.995 945.477 475.998 C 945.477 475.998 945.477 475.998 945.477 475.998 C 945.066 475.998 944.510 476.082 944.107 475.998 C 943.474 475.866 942.703 475.430 942.149 475.097 C 941.682 474.817 940.701 474.001 940.701 474.001 C 940.701 474.001 940.701 474.001 940.701 474.001 C 940.713 473.367 940.661 472.516 940.740 471.887 C 940.786 471.517 941.012 470.674 941.012 470.674 "/>
<path fill="none" stroke="#3b3b3b" stroke-width="12" stroke-linecap="round" stroke-linejoin="round" d="M 523.849 236.829 C 659.669 236.829 795.490 236.829 931.310 236.829 "/>
<path fill="none" stroke="#3b3b3b" stroke-width="12" stroke-linecap="round" stroke-linejoin="round" d="M 706.803 223.805 C 706.803 295.746 706.803 367.688 706.803 439.629 "/>
<path fill="none" stroke="#3b3b3b" stroke-width="12" stroke-linecap="round" stroke-linejoin="round" d="M 551.137 223.805 C 551.343 296.367 551.550 368.928 551.757 441.490 "/>
<path fill="none" stroke="#3b3b3b" stroke-width="12" stroke-linecap="round" stroke-linejoin="round" d="M 523.849 433.427 C 671.452 433.427 819.056 433.427 966.660 433.427 "/>
</g>
</g>
</g>
</svg>
